<svg xmlns="http://www.w3.org/2000/svg" xmlns:xlink="http://www.w3.org/1999/xlink" version="1.1" x="0px" y="0px" viewBox="0 0 512 640" enable-background="new 0 0 512 512" xml:space="preserve"><g><path d="M504.4,50.5h-23.7V38.9c0-4.2-3.4-7.6-7.6-7.6h-34H404h-87.6c-17.5,0-34.5,6.8-47.1,18.9c-0.8,0.8-1.7,1.6-2.5,2.5   L256,64.2l-10.9-11.5c-0.8-0.8-1.6-1.7-2.5-2.5c-12.6-12-29.6-18.9-47.1-18.9H108H72.9h-34c-4.2,0-7.6,3.4-7.6,7.6v11.6H7.6   c-4.2,0-7.6,3.4-7.6,7.6v91.4v35.3v76v134.6c0,4.2,3.4,7.6,7.6,7.6h156v28.4c-3.5,0.7-6.1,3.8-6.1,7.4v34.3c0,4.2,3.4,7.6,7.6,7.6   h181.8c4.2,0,7.6-3.4,7.6-7.6v-34.3c0-3.7-2.6-6.7-6.1-7.4v-28.4h156c4.2,0,7.6-3.4,7.6-7.6v-129v-81.5v-35.3V58.1   C512,53.9,508.6,50.5,504.4,50.5z M263.6,78.2l14.3-15.2c10-10.6,24-16.6,38.5-16.6H404h35.1h26.4v273.7H316.4   c-9.2,0-18.4,1.9-26.8,5.5l-1-0.5c-4.2-2.2-6.8-6.5-6.8-11.2v-11.7c0-4.3,2.1-8.2,5.6-10.5l3.8-1.9c0.9-0.4,1.7-0.9,2.5-1.4   l28.8-14.8c0.5-0.3,1-0.5,1.5-0.8c1-0.5,1.9-1.1,2.9-1.7c0.9-0.6,1.8-1.2,2.7-1.9c11.9-9,18.9-23,18.9-38.2v0v-46.2   c3.5-0.7,6.1-3.8,6.1-7.4v-34.3v0c0-4.2-3.4-7.6-7.6-7.6h-83.3V78.2z M291.1,383.2l-16.4-8.5c-5-2.6-9.4-6-13-10.2   c-1.3-1.5-3-2.4-4.9-2.6c-0.3,0-0.5,0-0.8,0c-2.2,0-4.3,1-5.8,2.6c-3.6,4.2-8,7.7-13,10.2l-16.4,8.5c-16.6,8.6-27,25.5-27,44.2v3.8   h-15.1v-46.1c0-6.1,1.7-11.8,4.6-16.8c0.1-0.2,0.3-0.4,0.4-0.6c3.1-4.9,7.4-9,12.8-11.7l33.8-17.4c9.3-4.8,15.1-14.2,15.1-24.7   v-10.3c1.7,1.5,3.4,3.1,4.9,4.8c1.4,1.7,3.5,2.6,5.7,2.6s4.3-1,5.7-2.6c1.5-1.7,3.1-3.3,4.9-4.8v10.3c0,10.4,5.8,19.9,15.1,24.7   l33.8,17.4c5.4,2.8,9.7,6.8,12.8,11.7c0.1,0.2,0.3,0.4,0.4,0.6c3,5,4.6,10.8,4.6,16.8v46.1h-15.1v-3.8   C318.1,408.7,307.8,391.8,291.1,383.2z M244.2,388.2c4.3-2.2,8.2-4.9,11.8-8c3.6,3.1,7.5,5.8,11.8,8l16.4,8.5   c11.6,6,18.8,17.8,18.8,30.8v3.8H209v-3.8c0-13,7.2-24.8,18.8-30.8L244.2,388.2z M333.3,230.9c0,12.1-6.6,23.1-17.2,28.9   c1.4-4.5,2.1-9.3,2.1-14.3v-11.8c0-4.2-3.4-7.6-7.6-7.6H201.5c-4.2,0-7.6,3.4-7.6,7.6v11.8c0,4.9,0.7,9.7,2.1,14.3   c-10.6-5.7-17.2-16.7-17.2-28.9v-46.1h154.5V230.9z M209,245.5v-4.3H303v4.3c0,12.2-6.3,23.3-16.6,29.6l-4.7,2.4   c-0.6,0.3-1.3,0.7-1.9,1.1l-12,6.2c-4.3,2.2-8.2,4.9-11.8,8c-3.6-3.1-7.5-5.8-11.8-8l-12-6.2c-0.6-0.4-1.2-0.7-1.9-1.1l-4.7-2.4   C215.4,268.8,209,257.7,209,245.5z M322.4,342.5l-13.1-6.7c2.4-0.3,4.7-0.5,7.1-0.5h149.1v21.2H338.9   C334.6,350.7,329,345.9,322.4,342.5z M339.3,150.5v18.7H172.7v-18.7H339.3z M46.5,46.5h26.4H108h87.6c14.5,0,28.6,6.1,38.5,16.6   l14.3,15.2v57.1h-83.3c-4.2,0-7.6,3.4-7.6,7.6v0v34.3c0,3.7,2.6,6.7,6.1,7.4v46.2v0c0,15.2,7.1,29.2,18.9,38.2   c0.9,0.7,1.8,1.3,2.7,1.9c0.9,0.6,1.9,1.2,2.9,1.7c0.5,0.3,1,0.5,1.5,0.8l28.8,14.8c0.8,0.5,1.6,0.9,2.5,1.4l3.8,1.9   c3.5,2.3,5.6,6.2,5.6,10.5v11.7c0,4.7-2.6,9-6.8,11.2l-1,0.5c-8.4-3.6-17.6-5.5-26.8-5.5H46.5V46.5z M46.5,335.3h149.1   c2.4,0,4.8,0.2,7.1,0.5l-13.1,6.7c-6.6,3.4-12.2,8.2-16.5,14H46.5V335.3z M163.6,385.2v2.6H15.1v-127v-76v-35.3V65.6h16.2v298.4   c0,4.2,3.4,7.6,7.6,7.6h126.6C164.3,376,163.6,380.5,163.6,385.2z M339.3,465.5H172.7v-18.7h166.6V465.5z M496.9,387.8H348.4v-2.6   c0-4.7-0.7-9.2-1.9-13.5h126.6c4.2,0,7.6-3.4,7.6-7.6V65.6h16.2v83.8v35.3v81.5V387.8z"/><path d="M417.6,120.2c4.2,0,7.6-3.4,7.6-7.6V100h13.1v12.6c0,4.2,3.4,7.6,7.6,7.6c4.2,0,7.6-3.4,7.6-7.6V92.4   c0-4.2-3.4-7.6-7.6-7.6h-28.3c-4.2,0-7.6,3.4-7.6,7.6v20.2C410,116.8,413.4,120.2,417.6,120.2z"/><path d="M445.9,252.5c-4.2,0-7.6,3.4-7.6,7.6v12.6h-13.1V260c0-4.2-3.4-7.6-7.6-7.6s-7.6,3.4-7.6,7.6v20.2c0,4.2,3.4,7.6,7.6,7.6   h28.3c4.2,0,7.6-3.4,7.6-7.6V260C453.4,255.9,450,252.5,445.9,252.5z"/><path d="M416.8,157.5c0.3,0,0.5,0,0.8,0h20.7v12.6c0,4.2,3.4,7.6,7.6,7.6c4.2,0,7.6-3.4,7.6-7.6V150c0-4.2-3.4-7.6-7.6-7.6h-28.3   c-4.2,0-7.6,3.4-7.6,7.6C410,153.9,413,157.1,416.8,157.5z"/><path d="M384.8,150c0-4.2-3.4-7.6-7.6-7.6s-7.6,3.4-7.6,7.6v20.2c0,4.2,3.4,7.6,7.6,7.6h28.3c4.2,0,7.6-3.4,7.6-7.6   s-3.4-7.6-7.6-7.6h-20.7V150z"/><path d="M370.1,110.1h21.2c4.2,0,7.6-3.4,7.6-7.6s-3.4-7.6-7.6-7.6h-21.2c-4.2,0-7.6,3.4-7.6,7.6S365.9,110.1,370.1,110.1z"/><path d="M370.1,233.3h21.2c4.2,0,7.6-3.4,7.6-7.6s-3.4-7.6-7.6-7.6h-21.2c-4.2,0-7.6,3.4-7.6,7.6S365.9,233.3,370.1,233.3z"/><path d="M370.1,279.7h21.2c4.2,0,7.6-3.4,7.6-7.6s-3.4-7.6-7.6-7.6h-21.2c-4.2,0-7.6,3.4-7.6,7.6S365.9,279.7,370.1,279.7z"/><path d="M353.5,102.5V89.4c0-4.2-3.4-7.6-7.6-7.6s-7.6,3.4-7.6,7.6v5.6h-13.6c-4.2,0-7.6,3.4-7.6,7.6s3.4,7.6,7.6,7.6h21.2   C350.1,110.1,353.5,106.7,353.5,102.5z"/><path d="M445.9,205c-4.2,0-7.6,3.4-7.6,7.6v5.6h-13.6c-4.2,0-7.6,3.4-7.6,7.6s3.4,7.6,7.6,7.6h21.2c4.2,0,7.6-3.4,7.6-7.6v-13.1   C453.4,208.4,450,205,445.9,205z"/><path d="M300.4,94.9h-21.2c-4.2,0-7.6,3.4-7.6,7.6s3.4,7.6,7.6,7.6h21.2c4.2,0,7.6-3.4,7.6-7.6S304.6,94.9,300.4,94.9z"/><path d="M66.1,120.2c4.2,0,7.6-3.4,7.6-7.6V100h13.1v12.6c0,4.2,3.4,7.6,7.6,7.6s7.6-3.4,7.6-7.6V92.4c0-4.2-3.4-7.6-7.6-7.6H66.1   c-4.2,0-7.6,3.4-7.6,7.6v20.2C58.6,116.8,62,120.2,66.1,120.2z"/><path d="M94.4,252.5c-4.2,0-7.6,3.4-7.6,7.6v12.6H73.7V260c0-4.2-3.4-7.6-7.6-7.6c-4.2,0-7.6,3.4-7.6,7.6v20.2   c0,4.2,3.4,7.6,7.6,7.6h28.3c4.2,0,7.6-3.4,7.6-7.6V260C102,255.9,98.6,252.5,94.4,252.5z"/><path d="M66.1,177.7c4.2,0,7.6-3.4,7.6-7.6v-12.6h20.7c0.3,0,0.5,0,0.8,0c3.8-0.4,6.8-3.6,6.8-7.5c0-4.2-3.4-7.6-7.6-7.6H66.1   c-4.2,0-7.6,3.4-7.6,7.6v20.2C58.6,174.3,62,177.7,66.1,177.7z"/><path d="M142.4,170.2V150c0-4.2-3.4-7.6-7.6-7.6s-7.6,3.4-7.6,7.6v12.6h-20.7c-4.2,0-7.6,3.4-7.6,7.6s3.4,7.6,7.6,7.6h28.3   C139,177.7,142.4,174.3,142.4,170.2z"/><path d="M141.9,94.9h-21.2c-4.2,0-7.6,3.4-7.6,7.6s3.4,7.6,7.6,7.6h21.2c4.2,0,7.6-3.4,7.6-7.6S146.1,94.9,141.9,94.9z"/><path d="M141.9,218.1h-21.2c-4.2,0-7.6,3.4-7.6,7.6s3.4,7.6,7.6,7.6h21.2c4.2,0,7.6-3.4,7.6-7.6S146.1,218.1,141.9,218.1z"/><path d="M141.9,264.6h-21.2c-4.2,0-7.6,3.4-7.6,7.6s3.4,7.6,7.6,7.6h21.2c4.2,0,7.6-3.4,7.6-7.6S146.1,264.6,141.9,264.6z"/><path d="M166.1,110.1h21.2c4.2,0,7.6-3.4,7.6-7.6s-3.4-7.6-7.6-7.6h-13.6v-5.6c0-4.2-3.4-7.6-7.6-7.6s-7.6,3.4-7.6,7.6v13.1   C158.5,106.7,161.9,110.1,166.1,110.1z"/><path d="M66.1,233.3h21.2c4.2,0,7.6-3.4,7.6-7.6s-3.4-7.6-7.6-7.6H73.7v-5.6c0-4.2-3.4-7.6-7.6-7.6c-4.2,0-7.6,3.4-7.6,7.6v13.1   C58.6,229.9,62,233.3,66.1,233.3z"/><path d="M211.6,110.1h21.2c4.2,0,7.6-3.4,7.6-7.6s-3.4-7.6-7.6-7.6h-21.2c-4.2,0-7.6,3.4-7.6,7.6S207.4,110.1,211.6,110.1z"/><path d="M256,324.2c-4.2,0-7.6,3.4-7.6,7.6v10.1v0c0,3.4,2.2,6.3,5.3,7.2c0.7,0.2,1.5,0.3,2.3,0.3s1.5-0.1,2.3-0.3   c3.1-1,5.3-3.8,5.3-7.2v0v-10.1C263.6,327.6,260.2,324.2,256,324.2z"/></g></svg>